<svg xmlns="http://www.w3.org/2000/svg" xmlns:xlink="http://www.w3.org/1999/xlink" width="180" height="180"><path d="M180 137.813C180 161.112 161.112 180 137.813 180H42.188C18.888 180 0 161.112 0 137.813V42.188C0 18.888 18.888 0 42.188 0h95.625C161.112 0 180 18.888 180 42.188v95.625z" fill="#ee7e00"/><path d="M92.407 88.89l10.775-10.778c.816-2.907 1.281-5.954 1.281-9.121h-11.93c0 12.08-9.798 21.893-21.898 21.893-12.106 0-21.893-9.813-21.893-21.893 0-12.089 9.787-21.898 21.893-21.898 11.334 0 20.652 8.612 21.783 19.643C91.272 52.411 79.3 41.129 64.659 41.129c-15.402 0-27.864 12.479-27.864 27.862 0 18.677 15.142 33.84 33.84 33.84 11.242 0 21.169-5.506 27.322-13.941h-5.55z" fill="#fff"/><path d="M92.534 68.986v.004h11.932v-.004c0-18.689-15.14-33.83-33.828-33.83-12.215 0-22.875 6.482-28.826 16.164V35.156H29.87L17.93 47.092h11.94v55.732h11.942V86.649c-3.16-5.145-5.017-11.181-5.017-17.659 0-7.038 2.627-13.447 6.934-18.357.104-.115.215-.235.326-.352.6-.666 1.229-1.295 1.888-1.893.139-.12.268-.246.404-.366a27.74 27.74 0 0 1 2.268-1.791c.066-.047.124-.094.187-.141a28.487 28.487 0 0 1 2.754-1.689.767.767 0 0 0 .115-.057 28.68 28.68 0 0 1 2.654-1.212c.272-.11.548-.209.823-.31a28.92 28.92 0 0 1 2.127-.676c.335-.089.668-.178 1.012-.258a27.944 27.944 0 0 1 2.195-.413c.317-.054.632-.11.955-.152a29.764 29.764 0 0 1 3.223-.195c1.621 0 3.202.157 4.744.425.202.037.409.047.605.084.266.059.522.136.788.19a27.76 27.76 0 0 1 6.561 2.353c.008.007.016.007.023.012.752.387 1.487.807 2.198 1.265.063.035.118.082.181.125.65.42 1.29.865 1.901 1.337.058.042.105.089.158.131.616.483 1.211.98 1.785 1.516.05.042.093.096.142.136.569.542 1.12 1.091 1.639 1.668.061.075.11.143.168.211a27.18 27.18 0 0 1 1.442 1.762c.194.263.362.546.551.807.296.432.605.85.881 1.302.278.455.522.943.782 1.422.144.272.309.539.448.823.263.528.485 1.079.711 1.63.104.242.226.477.32.729.296.781.558 1.572.784 2.391.008.021.02.047.023.073.467 1.685.781 3.433.928 5.225.074.739.111 1.485.111 2.241m55.605 9.95v-43.78h-1.984L92.407 88.89h43.807v13.939h11.926V88.89h13.932v-9.954h-13.933zm-11.926 0h-19.914l19.914-19.885v19.885z" fill="#fff"/><g opacity=".3"><defs><path id="a" d="M36.795 41.129h67.668v61.7H36.795z"/></defs><clipPath id="b"><use xlink:href="#a" overflow="visible"/></clipPath><path d="M92.407 88.89l10.775-10.778c.816-2.907 1.281-5.954 1.281-9.121h-11.93c0 12.08-9.798 21.893-21.898 21.893-12.106 0-21.893-9.813-21.893-21.893 0-12.089 9.787-21.898 21.893-21.898 11.334 0 20.652 8.612 21.783 19.643C91.272 52.411 79.3 41.129 64.659 41.129c-15.402 0-27.864 12.479-27.864 27.862 0 18.677 15.142 33.84 33.84 33.84 11.242 0 21.169-5.506 27.322-13.941h-5.55z" clip-path="url(#b)" fill="#ee7e00"/></g><path fill="#fff" d="M31.242 119.524H19.277v-2.881h26.748v2.881H34.25v20.922h13.167v2.881H17.884v-2.881h13.358zm27.233 10.824l-2.723-1.17c3.166-4.389 5.107-9.148 5.825-14.277l2.849.508c-.57 2.764-1.214 5.17-1.931 7.217v22.285h-2.754V128.45c-.443.675-.865 1.308-1.266 1.898m16.935 14.436h-2.753V120.22h-2.944c-.76 3.82-1.804 6.9-3.134 9.244l-2.849-.824c2.343-4.305 3.577-8.83 3.704-13.58l2.88.158a62.598 62.598 0 0 1-.221 2.248h15.7v2.754H75.41v6.363h9.497v2.754H75.41v6.109h9.876v2.754H75.41v6.584zm21.852-24.217c-.043 4.729-.295 8.896-.76 12.504l-2.438-.348c.611-4.559.855-8.674.729-12.346l2.469.19zm3.862 24.344H98.37V114.87h2.754v30.041zm4.242-17.696l-2.469.348-.855-6.553 2.471-.506.853 6.711zm-.791 17.696l-2.152-2.059c4.432-2.426 7.186-6.299 8.262-11.617h-7.186v-2.754h7.533c.064-.654.105-1.34.127-2.059v-5.189h-5.477v-2.754h5.477v-3.482h2.754v3.482h7.406c.465 0 .697.221.697.664v9.338h2.279v2.754h-9.877l.033.031c1.266 4.559 4.494 8.516 9.686 11.871l-2.311 1.867a8.54 8.54 0 0 0-.475-.348c-4.475-3.461-7.375-6.912-8.705-10.352-1.456 4.454-4.146 7.989-8.071 10.607m9.306-17.823c.021.486.063.949.127 1.393h5.254v-6.932c-.021-.211-.137-.316-.348-.316h-5.002v5.189c0 .043-.01.074-.031.096a2.586 2.586 0 0 0 0 .57m22.866-3.197h-3.863v-2.754h3.863v-5.887h2.752v5.887h3.166v2.754h-3.166v5.697c.887-.59 1.625-1.148 2.217-1.676L143.52 130c-1.014.824-2.184 1.625-3.514 2.406a2.08 2.08 0 0 0-.508.316v8.895c-.02 1.223-.506 2.152-1.455 2.787-.887.59-2.691.473-5.412-.35l.125-2.848c1.414.506 2.406.791 2.977.854.273.043.518-.043.729-.254.189-.168.285-.475.285-.916v-6.586c-.908.508-1.838.992-2.787 1.457l-1.646-2.248a85.943 85.943 0 0 0 4.434-2.215v-7.407zm12.154.381h-4.621v-2.754h4.367a76.693 76.693 0 0 1-.316-6.395l2.754.189c0 2.152.064 4.221.189 6.205h10.383v2.754h-10.098c.275 2.975.803 5.791 1.584 8.451.949-1.16 2.246-3.387 3.893-6.68l2.502 1.172c-1.605 3.482-3.389 6.311-5.35 8.482.674 1.563 1.465 2.924 2.373 4.084.781 1.055 1.309 1.582 1.582 1.582.232 0 .391-.168.477-.506.273-.992.516-2.701.727-5.127l2.691.854c-.275 4.115-.949 6.689-2.025 7.725-.402.379-.824.58-1.268.602-.865 0-1.74-.486-2.627-1.457-1.246-1.266-2.48-3.133-3.703-5.604a.78.78 0 0 1-.158-.283c-2.449 2.109-5.604 4.029-9.465 5.76l-1.836-2.436c4.475-1.943 7.881-3.957 10.225-6.047-1.077-2.932-1.837-6.456-2.28-10.571m5.539-9.402c2.363 1.393 4.18 2.596 5.445 3.609l-1.709 2.121c-1.816-1.477-3.588-2.639-5.318-3.482l1.582-2.248z"/></svg>