<?xml version="1.0" encoding="UTF-8"?>
<svg id="Eraser" data-name="圖層 1" xmlns="http://www.w3.org/2000/svg" viewBox="0 0 376.16 376.16">
  <defs>
    <style>
      .cls-1 {
        fill: #fff1c5;
      }

      .cls-1:hover {
        fill: #f39800;
      }
      .checked{
        fill : rebeccapurple !important;
      }
    </style>
  </defs>
  <path class="cls-1 "
    d="M24.85,236.34c1.65-9.37,7.51-16.01,13.99-22.47,54.5-54.4,108.9-108.89,163.31-163.37,9.33-9.34,20.33-12.46,32.79-8.08,4.23,1.49,8.4,4.25,11.6,7.43,31.71,31.44,63.25,63.04,94.74,94.7,12.62,12.68,12.7,30.81,0,43.41-46.37,46.02-92.88,91.91-139.35,137.83-7.61,7.52-16.85,11.08-27.53,11.05-15.8-.03-31.61-.04-47.41,0-10.93,.03-20.22-3.79-28.02-11.45-19.99-19.61-39.95-39.24-60.1-58.68-6.52-6.29-12.26-12.88-14.03-22.09v-8.27Zm30.11,4.37c.13,.15,.39,.48,.69,.78,21.32,20.82,42.64,41.64,63.95,62.48,2.16,2.11,4.65,3.1,7.71,3.08,15.38-.06,30.76-.08,46.13,.01,3.53,.02,6.29-1.08,8.79-3.57,14.06-13.99,28.19-27.9,42.3-41.84,.74-.73,1.42-1.5,1.91-2.03-31.89-31.89-63.64-63.64-95.2-95.19-25.28,25.28-50.76,50.76-76.29,76.29Z" />
</svg>